<svg width="134" height="27" viewBox="0 0 134 27" fill="none" xmlns="http://www.w3.org/2000/svg">
<path d="M0.6 25.9453V3.54531H8.92V25.9453H0.6ZM19.48 3.54531H29.4L18.84 14.7453L29.4 25.9453H19.48L8.92 14.7453L19.48 3.54531ZM35.1638 16.3453C35.1638 18.692 36.8704 19.8653 40.2838 19.8653C43.6971 19.8653 45.4038 18.692 45.4038 16.3453C45.4038 13.9986 43.6971 12.8253 40.2838 12.8253C36.8704 12.8253 35.1638 13.9986 35.1638 16.3453ZM45.4038 9.08131V6.74531H53.0838V25.9453H45.4038V23.6093C43.6331 25.38 41.0731 26.2653 37.7238 26.2653C34.3744 26.2653 31.8144 25.3906 30.0438 23.6413C28.3371 21.9346 27.4838 19.5026 27.4838 16.3453C27.4838 13.188 28.3371 10.756 30.0438 9.04931C31.8144 7.29998 34.3744 6.42531 37.7238 6.42531C41.0731 6.42531 43.6331 7.31065 45.4038 9.08131ZM68.455 19.8653C71.8683 19.8653 73.575 18.692 73.575 16.3453C73.575 13.9986 71.8683 12.8253 68.455 12.8253C65.0417 12.8253 63.335 13.9986 63.335 16.3453C63.335 18.692 65.0417 19.8653 68.455 19.8653ZM63.335 0.345312V9.08131C65.1057 7.31065 67.6657 6.42531 71.015 6.42531C74.3643 6.42531 76.9243 7.29998 78.695 9.04931C80.4017 10.756 81.255 13.188 81.255 16.3453C81.255 19.5026 80.4017 21.9346 78.695 23.6413C76.9243 25.3906 74.3643 26.2653 71.015 26.2653C67.6657 26.2653 65.1057 25.38 63.335 23.6093V25.9453H55.655V0.345312H63.335ZM90.774 20.5053C91.3287 20.7186 92.5873 20.8253 94.55 20.8253C96.47 20.8253 97.7393 20.74 98.358 20.5693C98.806 20.4413 99.03 20.2066 99.03 19.8653C99.03 19.524 98.8167 19.2786 98.39 19.1293C97.7713 18.9373 96.4913 18.8093 94.55 18.7453C89.622 18.596 86.294 18.02 84.566 17.0173C83.1153 16.164 82.39 14.66 82.39 12.5053C82.39 10.436 83.2433 8.93198 84.95 7.99331C86.87 6.94798 90.07 6.42531 94.55 6.42531C99.0087 6.42531 102.155 7.03331 103.99 8.24931C105.59 9.31598 106.39 11.0546 106.39 13.4653H98.71C98.71 12.8253 98.4647 12.3986 97.974 12.1853C97.4407 11.972 96.2993 11.8653 94.55 11.8653C92.63 11.8653 91.3607 11.9506 90.742 12.1213C90.294 12.2493 90.07 12.484 90.07 12.8253C90.07 13.1453 90.294 13.3586 90.742 13.4653C91.2967 13.6146 92.566 13.7213 94.55 13.7853C99.478 13.9773 102.795 14.564 104.502 15.5453C105.974 16.3773 106.71 17.8706 106.71 20.0253C106.71 22.0946 105.857 23.62 104.15 24.6013C102.209 25.7106 99.0087 26.2653 94.55 26.2653C90.0487 26.2653 86.8487 25.6573 84.95 24.4413C83.2433 23.3533 82.39 21.6146 82.39 19.2253H90.07C90.07 19.8866 90.3047 20.3133 90.774 20.5053ZM115.664 16.3453C115.664 18.692 117.37 19.8653 120.784 19.8653C124.197 19.8653 125.904 18.692 125.904 16.3453C125.904 13.9986 124.197 12.8253 120.784 12.8253C117.37 12.8253 115.664 13.9986 115.664 16.3453ZM125.904 9.08131V6.74531H133.584V25.9453H125.904V23.6093C124.133 25.38 121.573 26.2653 118.224 26.2653C114.874 26.2653 112.314 25.3906 110.544 23.6413C108.837 21.9346 107.984 19.5026 107.984 16.3453C107.984 13.188 108.837 10.756 110.544 9.04931C112.314 7.29998 114.874 6.42531 118.224 6.42531C121.573 6.42531 124.133 7.31065 125.904 9.08131Z" fill="#00A1E4"/>
</svg>
