<svg width="221" height="878" viewBox="0 0 221 878" fill="none" xmlns="http://www.w3.org/2000/svg">
<mask id="mask0_214_1322" style="mask-type:luminance" maskUnits="userSpaceOnUse" x="0" y="0" width="223" height="416">
<path d="M222.533 0.000106231L222.945 414.783L0.4131 415.005L0.000541432 0.221445L222.533 0.000106231Z" fill="white"/>
</mask>
<g mask="url(#mask0_214_1322)">
<path d="M294.561 65.278C299.805 24.3987 287.83 12.9213 282.904 9.45451C259.056 -7.34331 195.373 19.5539 173.209 65.3987C146.265 121.05 183.181 192.48 152.771 235.629C133.489 262.981 118.177 253.214 82.9081 283.458C45.3706 315.624 -18.464 420.28 17.8513 483.003C52.2553 542.429 150.784 520.1 169.158 577.087C178.096 604.795 155.742 613.026 159.293 653.82C165.084 721.139 233.612 788.472 303.946 792.085C316.77 792.717 329.613 791.326 342.008 787.961C301.911 760.726 243.915 711.508 225.637 635.705C219.142 608.82 220.076 588.488 220.818 567.388C229.242 327.62 200.673 284.166 238.784 175.872C252.646 136.783 271.388 99.6214 294.561 65.278Z" fill="#A9D8F4"/>
<path d="M281.336 59.9577C254.03 53.6745 240.328 59.2504 232.898 65.3381C197.636 94.1251 253.579 177.276 212.459 235.568C193.139 262.92 177.797 253.153 142.441 283.398C103.876 316.389 39.8627 422.676 77.2778 482.943C109.083 534.277 188.721 510.452 212.443 565.477C225.147 594.945 206.926 612.571 218.954 653.894C230.464 693.529 259.625 719.912 282.008 735.81L281.336 59.9577Z" fill="#55BDE9"/>
<path d="M342.925 59.8954C315.525 53.6122 301.776 59.1883 294.319 65.276C258.954 94.0631 315.072 177.213 273.77 235.506C254.383 262.858 238.988 253.091 203.529 283.336C140.774 336.817 104.907 439.105 138.119 482.881C162.38 514.908 203.58 489.318 238.838 526.532C269.565 559.013 252.986 594.092 280.325 653.793C298.051 692.502 323.956 718.965 343.598 735.709L342.925 59.8954Z" fill="#21A0DB"/>
</g>
<mask id="mask1_214_1322" style="mask-type:luminance" maskUnits="userSpaceOnUse" x="0" y="415" width="222" height="463">
<path d="M221.049 415L221.049 878H0.945557L0.945557 415L221.049 415Z" fill="white"/>
</mask>
<g mask="url(#mask1_214_1322)">
<path d="M292.172 -43.5051C297.394 -97.1156 285.561 -112.115 280.686 -116.736C257.021 -138.815 193.913 -103.607 171.952 -43.5051C145.21 29.5792 181.702 123.167 151.536 179.886C132.415 215.767 117.253 202.994 82.2759 242.551C45.0741 284.712 -18.2543 421.953 17.5907 504.322C51.653 582.322 149.296 553.143 167.44 627.908C176.275 664.293 154.108 675.049 157.595 728.743C163.322 817.037 231.083 905.456 300.754 910.309C313.457 911.142 326.179 909.328 338.461 904.931C298.719 869.219 241.37 804.474 223.29 705.005C216.869 669.608 217.831 642.991 218.557 615.367C227.139 300.825 198.883 243.727 236.747 101.676C250.519 50.3577 269.127 1.57416 292.124 -43.5051" fill="#A9D8F4"/>
<path d="M278.945 -50.3622C251.985 -58.6144 238.458 -51.3281 231.119 -43.3699C196.301 -5.63672 251.434 103.489 210.742 179.921C191.656 215.786 176.522 203.019 141.625 242.558C103.516 285.772 40.2413 425.072 77.0595 504.213C108.476 571.511 187.12 540.371 210.443 612.478C222.962 651.135 204.963 674.211 216.742 728.428C228.064 780.461 256.867 815.107 278.945 836L278.945 -50.3622Z" fill="#55BDE9"/>
<path d="M340.07 -50.501C313.076 -58.7569 299.524 -51.4673 292.172 -43.5056C257.289 -5.75555 312.508 103.419 271.756 179.886C252.635 215.766 237.473 202.994 202.496 242.55C140.635 312.61 105.121 446.678 137.858 504.28C161.744 546.294 202.354 512.788 237.063 561.651C267.355 604.233 250.931 650.301 277.799 728.68C295.232 779.496 320.728 814.305 340.07 836.258L340.07 -50.501Z" fill="#21A0DB"/>
<path d="M145.805 635.707C139.627 640.637 134.31 646.558 130.07 653.228L158.722 685.331C159.417 686.104 160.301 686.684 161.286 687.015C162.272 687.345 163.327 687.415 164.348 687.217C170.752 685.851 176.757 683.034 181.903 678.984C189.182 673.502 192.7 667.965 194.309 664.558C194.741 663.65 194.909 662.64 194.796 661.642C194.682 660.643 194.29 659.697 193.665 658.91L167.344 625.054C159.64 627.427 152.367 631.024 145.805 635.707Z" fill="#21A0DB"/>
<path d="M146.028 635.707C139.85 640.637 134.533 646.558 130.293 653.228L158.934 685.331C159.631 686.104 160.517 686.684 161.504 687.014C162.492 687.345 163.548 687.415 164.571 687.217C170.972 685.852 176.974 683.035 182.115 678.984C189.394 673.491 192.912 667.965 194.532 664.558C194.962 663.649 195.129 662.639 195.013 661.64C194.897 660.642 194.504 659.696 193.877 658.91L167.556 625.054C159.854 627.426 152.586 631.023 146.028 635.707Z" fill="#55BDE9"/>
<path d="M130.76 631.89C130.76 631.89 124.801 629.204 125.755 623.234C126.088 620.3 127.308 617.536 129.251 615.311C129.413 615.973 129.652 616.613 129.961 617.22C130.172 617.613 130.474 617.949 130.842 618.201C131.21 618.453 131.633 618.613 132.075 618.667C132.518 618.722 132.967 618.669 133.385 618.514C133.803 618.358 134.178 618.105 134.477 617.775C135.886 616.132 138.772 613.336 142.311 613.025C143.319 612.934 144.334 613.089 145.27 613.475C146.205 613.862 147.033 614.469 147.682 615.245C148.162 615.784 148.494 616.439 148.648 617.144C148.801 617.849 148.771 618.583 148.559 619.273C148.559 619.273 140.647 622.324 130.804 631.901" fill="white"/>
<path d="M156.959 620.671C149.48 623.201 141.124 630.081 141.124 630.081C141.124 630.081 132.18 636.251 127.886 642.598C126.503 641.603 125.543 640.126 125.194 638.459C124.845 636.792 125.132 635.054 125.999 633.588C126.588 632.394 127.376 631.309 128.33 630.381C129.051 629.682 130.105 628.683 131.403 627.529C132.702 626.375 134.233 625.099 135.909 623.845C138.599 621.83 141.408 619.977 144.32 618.297C145.51 617.612 146.802 617.125 148.148 616.854C149.396 616.518 150.706 616.495 151.965 616.787C153.223 617.08 154.39 617.678 155.361 618.53C156.024 619.123 156.56 619.844 156.937 620.649" fill="white"/>
<path d="M166.313 622.601C166.843 623.355 167.192 624.221 167.334 625.131C159.639 627.483 152.371 631.053 145.806 635.706C139.632 640.64 134.315 646.561 130.071 653.228C129.188 652.894 128.386 652.376 127.719 651.708C127.19 651.176 126.758 650.557 126.443 649.877C126.031 648.936 125.858 647.907 125.939 646.883C126.021 645.859 126.354 644.871 126.909 644.007C128.518 641.443 132.391 636.428 141.002 629.936C149.613 623.445 155.627 621.059 158.623 620.105C159.643 619.786 160.722 619.702 161.779 619.86C162.836 620.017 163.844 620.412 164.726 621.015C165.343 621.447 165.88 621.984 166.313 622.601Z" fill="white"/>
<path d="M145.805 635.707C139.627 640.637 134.31 646.558 130.07 653.228L158.722 685.331C159.417 686.104 160.301 686.684 161.286 687.015C162.272 687.345 163.327 687.415 164.348 687.217C170.752 685.851 176.757 683.034 181.903 678.984C189.182 673.502 192.7 667.965 194.309 664.558C194.741 663.65 194.909 662.64 194.796 661.642C194.682 660.643 194.29 659.697 193.665 658.91L167.344 625.054C159.64 627.427 152.367 631.024 145.805 635.707Z" stroke="#21A0DB" stroke-width="1.18734" stroke-linecap="round" stroke-linejoin="round"/>
<path d="M147.682 615.233C148.072 615.694 148.37 616.225 148.559 616.798L148.17 616.876C146.827 617.144 145.538 617.632 144.353 618.318C141.436 619.995 138.623 621.848 135.931 623.867C134.255 625.121 132.724 626.408 131.425 627.551C130.127 628.694 129.139 629.637 128.429 630.336C127.405 629.491 126.618 628.394 126.147 627.152C125.676 625.911 125.537 624.568 125.744 623.256C126.091 620.321 127.317 617.559 129.261 615.333C129.417 615.995 129.652 616.636 129.961 617.242C130.17 617.635 130.471 617.971 130.838 618.223C131.205 618.475 131.627 618.635 132.069 618.689C132.511 618.744 132.959 618.691 133.376 618.536C133.794 618.38 134.167 618.127 134.466 617.797C135.886 616.154 138.771 613.358 142.3 613.047C143.307 612.951 144.322 613.099 145.259 613.479C146.197 613.86 147.028 614.462 147.682 615.233Z" stroke="#21A0DB" stroke-width="1.18734" stroke-linecap="round" stroke-linejoin="round"/>
<path d="M156.959 620.66L156.504 620.826L156.227 620.926C153.919 621.818 151.691 622.906 149.569 624.177C146.623 625.938 143.801 627.9 141.124 630.047C138.329 632.021 135.674 634.187 133.179 636.528C131.417 638.167 129.805 639.961 128.363 641.887L128.23 642.076L127.93 642.509C127.653 642.32 123.281 639.18 126.055 633.51C126.634 632.347 127.403 631.29 128.33 630.38L128.407 630.314C129.117 629.615 130.149 628.638 131.403 627.528C132.657 626.419 134.233 625.098 135.909 623.844C138.599 621.829 141.408 619.976 144.32 618.296C145.51 617.611 146.802 617.124 148.148 616.853L148.537 616.776C154.773 615.788 156.848 620.415 156.959 620.66Z" stroke="#21A0DB" stroke-width="1.18734" stroke-linecap="round" stroke-linejoin="round"/>
<path d="M164.736 621.015C163.851 620.412 162.842 620.017 161.783 619.86C160.724 619.702 159.644 619.786 158.622 620.105C155.626 621.004 149.611 623.434 141 629.936C132.389 636.439 128.516 641.444 126.919 644.007C126.36 644.868 126.024 645.854 125.94 646.876C125.857 647.899 126.029 648.926 126.441 649.866C127.181 651.399 128.479 652.59 130.07 653.195C134.317 646.539 139.633 640.63 145.805 635.707C152.372 631.052 159.644 627.481 167.344 625.132C167.205 624.306 166.902 623.517 166.455 622.81C166.007 622.104 165.423 621.493 164.736 621.015Z" stroke="#21A0DB" stroke-width="1.18734" stroke-linecap="round" stroke-linejoin="round"/>
<path d="M160.708 621.426C160.708 621.426 164.536 622.08 165.779 625.421" stroke="#21A0DB" stroke-width="0.36619" stroke-linecap="round" stroke-linejoin="round"/>
<path d="M162.462 623.179C162.462 623.179 164.449 623.967 164.682 625.653" stroke="#21A0DB" stroke-width="0.36619" stroke-linecap="round" stroke-linejoin="round"/>
<path d="M161.218 622.769L161.629 622.913" stroke="#21A0DB" stroke-width="0.36619" stroke-linecap="round" stroke-linejoin="round"/>
<path d="M126.698 638.016C126.764 638.672 126.967 639.308 127.294 639.882C127.62 640.455 128.064 640.953 128.596 641.345" stroke="#21A0DB" stroke-width="0.36619" stroke-linecap="round" stroke-linejoin="round"/>
<path d="M127.429 637.072C127.331 637.86 127.542 638.656 128.018 639.292" stroke="#21A0DB" stroke-width="0.36619" stroke-linecap="round" stroke-linejoin="round"/>
<path d="M141.966 614.502C142.94 614.354 143.936 614.503 144.823 614.931C145.71 615.359 146.447 616.045 146.938 616.899" stroke="#21A0DB" stroke-width="0.36619" stroke-linecap="round" stroke-linejoin="round"/>
<path d="M144.297 615.455C145.078 615.758 145.716 616.345 146.084 617.097" stroke="#21A0DB" stroke-width="0.36619" stroke-linecap="round" stroke-linejoin="round"/>
</g>
<path d="M141.503 268.945L140.981 269.215C140.412 269.481 139.809 269.667 139.189 269.769C113.947 273.892 90.8615 287.252 90.8615 287.252C93.1382 294.614 89.4675 300.205 85.2388 303.893C80.3604 307.965 74.2756 310.314 67.9268 310.578C60.3464 311.01 55.1726 309.451 51.8018 307.67C50.6413 307.071 49.7016 306.118 49.1187 304.949C48.6216 303.99 48.424 302.905 48.5515 301.833C48.679 300.761 49.1258 299.752 49.8338 298.937C63.9811 282.543 86.3002 284.508 86.3002 284.508C97.5779 273.448 117.174 262.723 124.556 259.45C127.62 258.064 130.93 257.303 134.292 257.211C135.874 257.164 137.457 257.285 139.014 257.571C139.687 257.712 140.336 257.946 140.945 258.266C145.273 260.446 145.985 266.46 141.451 268.97" fill="white"/>
<path d="M137.252 264.798C137.252 264.798 114.787 269.322 90.0807 284.791" stroke="#43251A" stroke-width="1.08734" stroke-linecap="round" stroke-linejoin="round"/>
<path d="M141.504 268.946L140.981 269.216C140.412 269.482 139.81 269.668 139.19 269.77C113.947 273.893 90.8619 287.253 90.8619 287.253C93.1386 294.615 89.4679 300.205 85.2392 303.894C80.3609 307.966 74.2761 310.315 67.9272 310.579C60.3468 311.01 55.173 309.452 51.8022 307.671C50.6417 307.072 49.702 306.119 49.1191 304.95C48.622 303.991 48.4244 302.906 48.552 301.834C48.6795 300.762 49.1262 299.753 49.8342 298.938C63.9815 282.544 85.613 285.177 85.613 285.177C96.8749 274.1 117.167 262.743 124.56 259.442C127.624 258.056 130.934 257.294 134.296 257.202C135.878 257.155 137.461 257.276 139.018 257.562C139.691 257.704 140.34 257.938 140.948 258.257C145.277 260.438 145.989 266.451 141.455 268.961" fill="white"/>
<path d="M141.504 268.946L140.982 269.215C140.413 269.482 139.81 269.668 139.19 269.77C113.948 273.892 90.8623 287.253 90.8623 287.253C93.139 294.615 89.4682 300.205 85.2395 303.894C80.3612 307.965 74.2764 310.315 67.9275 310.579C60.3472 311.01 55.1734 309.452 51.8026 307.671C50.642 307.072 49.7023 306.118 49.1194 304.949C48.6224 303.991 48.4248 302.905 48.5523 301.834C48.6798 300.762 49.1265 299.753 49.8345 298.938C63.9819 282.543 85.6133 285.177 85.6133 285.177C96.8752 274.1 117.168 262.743 124.56 259.441C127.625 258.055 130.934 257.294 134.296 257.202C135.879 257.155 137.462 257.276 139.019 257.562C139.691 257.703 140.341 257.937 140.949 258.257C145.307 260.415 146.019 266.429 141.504 268.946Z" stroke="#4AAADF" stroke-width="1.54895" stroke-linecap="round" stroke-linejoin="round"/>
<path d="M85.6106 285.186C84.2752 288.107 76.8728 301.152 51.6204 302.033C51.5927 301.02 51.2543 289.276 54.2091 279.71C54.6698 278.423 55.5746 277.342 56.7608 276.662C57.947 275.982 59.3368 275.747 60.6805 276C67.0862 276.923 78.4438 279.323 85.6106 285.186Z" fill="white"/>
<path d="M85.6106 285.186C84.2752 288.107 76.8728 301.152 51.6204 302.033C51.5927 301.02 51.2543 289.276 54.2091 279.71C54.6698 278.423 55.5746 277.342 56.7608 276.662C57.947 275.982 59.3368 275.747 60.6805 276C67.0862 276.923 78.4438 279.323 85.6106 285.186Z" stroke="#4AAADF" stroke-width="1.54895" stroke-linecap="round" stroke-linejoin="round"/>
<path d="M72.7518 292.702C72.7054 293.769 72.3879 294.806 71.8294 295.717C71.2849 296.724 70.6334 297.67 69.8863 298.539C64.0439 300.747 57.8639 301.929 51.6189 302.034C51.5913 301.021 51.2494 289.286 54.2077 279.71C54.6684 278.423 55.5732 277.342 56.7594 276.662C57.9455 275.982 59.3354 275.748 60.679 276.001C61.177 276.071 61.7171 276.145 62.2599 276.243C63.3294 276.906 64.1179 277.938 64.4755 279.145C64.8331 280.351 64.7348 281.647 64.1993 282.785C63.476 283.848 62.6932 284.869 61.8547 285.844C61.4505 286.338 61.2099 286.945 61.1662 287.582C61.1224 288.219 61.2777 288.853 61.6105 289.398C62.0084 289.8 62.4962 290.101 63.0335 290.278C63.5709 290.454 64.1424 290.501 64.7012 290.413C65.8039 290.232 66.8946 289.984 67.967 289.67C69.0598 289.351 70.2328 289.458 71.25 289.969C71.7124 290.257 72.0936 290.658 72.357 291.135C72.6205 291.611 72.7576 292.148 72.7553 292.692" fill="white"/>
<path d="M72.7518 292.702C72.7054 293.769 72.3879 294.806 71.8294 295.717C71.2849 296.724 70.6334 297.67 69.8863 298.539C64.0439 300.747 57.8639 301.929 51.6189 302.034C51.5913 301.021 51.2494 289.286 54.2077 279.71C54.6684 278.423 55.5732 277.342 56.7594 276.662C57.9455 275.982 59.3354 275.748 60.679 276.001C61.177 276.071 61.7171 276.145 62.2599 276.243C63.3294 276.906 64.1179 277.938 64.4755 279.145C64.8331 280.351 64.7348 281.647 64.1993 282.785C63.476 283.848 62.6932 284.869 61.8547 285.844C61.4505 286.338 61.2099 286.945 61.1662 287.582C61.1224 288.219 61.2777 288.853 61.6105 289.398C62.0084 289.8 62.4962 290.101 63.0335 290.278C63.5709 290.454 64.1424 290.501 64.7012 290.413C65.8039 290.232 66.8946 289.984 67.967 289.67C69.0598 289.351 70.2328 289.458 71.25 289.969C71.7132 290.258 72.0945 290.661 72.3574 291.14C72.6204 291.618 72.7562 292.156 72.7518 292.702Z" stroke="#4AAADF" stroke-width="1.54895" stroke-linecap="round" stroke-linejoin="round"/>
<path d="M85.6106 285.186C84.2752 288.107 76.8728 301.152 51.6204 302.033C51.5927 301.02 51.2543 289.276 54.2091 279.71C54.6698 278.423 55.5746 277.342 56.7608 276.662C57.947 275.982 59.3368 275.747 60.6805 276C67.0862 276.923 78.4438 279.323 85.6106 285.186Z" fill="white"/>
<path d="M85.6106 285.186C84.2752 288.107 76.8728 301.152 51.6204 302.033C51.5927 301.02 51.2543 289.276 54.2091 279.71C54.6698 278.423 55.5746 277.342 56.7608 276.662C57.947 275.982 59.3368 275.747 60.6805 276C67.0862 276.923 78.4438 279.323 85.6106 285.186Z" stroke="#4AAADF" stroke-width="1.54895" stroke-linecap="round" stroke-linejoin="round"/>
<path d="M72.7518 292.702C72.7054 293.769 72.3879 294.806 71.8294 295.717C71.2849 296.724 70.6334 297.67 69.8863 298.539C64.0439 300.747 57.8639 301.929 51.6189 302.034C51.5913 301.021 51.2494 289.286 54.2077 279.71C54.6684 278.423 55.5732 277.342 56.7594 276.662C57.9455 275.982 59.3354 275.748 60.679 276.001C61.177 276.071 61.7171 276.145 62.2599 276.243C63.3294 276.906 64.1179 277.938 64.4755 279.145C64.8331 280.351 64.7348 281.647 64.1993 282.785C63.476 283.848 62.6932 284.869 61.8547 285.844C61.4505 286.338 61.2099 286.945 61.1662 287.582C61.1224 288.219 61.2777 288.853 61.6105 289.398C62.0084 289.8 62.4962 290.101 63.0335 290.278C63.5709 290.454 64.1424 290.501 64.7012 290.413C65.8039 290.232 66.8946 289.984 67.967 289.67C69.0598 289.351 70.2328 289.458 71.25 289.969C71.7124 290.257 72.0936 290.658 72.357 291.135C72.6205 291.611 72.7576 292.148 72.7553 292.692" fill="#B9DDF5"/>
<path d="M72.7518 292.702C72.7054 293.769 72.3879 294.806 71.8294 295.717C71.2849 296.724 70.6334 297.67 69.8863 298.539C64.0439 300.747 57.8639 301.929 51.6189 302.034C51.5913 301.021 51.2494 289.286 54.2077 279.71C54.6684 278.423 55.5732 277.342 56.7594 276.662C57.9455 275.982 59.3354 275.748 60.679 276.001C61.177 276.071 61.7171 276.145 62.2599 276.243C63.3294 276.906 64.1179 277.938 64.4755 279.145C64.8331 280.351 64.7348 281.647 64.1993 282.785C63.476 283.848 62.6932 284.869 61.8547 285.844C61.4505 286.338 61.2099 286.945 61.1662 287.582C61.1224 288.219 61.2777 288.853 61.6105 289.398C62.0084 289.8 62.4962 290.101 63.0335 290.278C63.5709 290.454 64.1424 290.501 64.7012 290.413C65.8039 290.232 66.8946 289.984 67.967 289.67C69.0598 289.351 70.2328 289.458 71.25 289.969C71.7132 290.258 72.0945 290.661 72.3574 291.14C72.6204 291.618 72.7562 292.156 72.7518 292.702Z" stroke="#4AAADF" stroke-width="1.54895" stroke-linecap="round" stroke-linejoin="round"/>
<path d="M57.7987 306.101C57.7987 306.101 69.2939 309.936 81.8027 301.663" stroke="#4AAADF" stroke-width="0.98476" stroke-linecap="round" stroke-linejoin="round"/>
<path d="M68.8689 304.724C73.6091 303.831 78.0553 301.781 81.8125 298.756" stroke="#4AAADF" stroke-width="0.98476" stroke-linecap="round" stroke-linejoin="round"/>
<path d="M83.2226 297.355L83.9199 296.69" stroke="#4AAADF" stroke-width="0.98476" stroke-linecap="round" stroke-linejoin="round"/>
<path d="M51.6258 297.838C51.6258 297.838 60.5531 297.935 65.2441 295.264L51.6258 297.838Z" fill="white"/>
<path d="M51.6258 297.838C51.6258 297.838 60.5531 297.935 65.2441 295.264" stroke="#4AAADF" stroke-width="1.54895" stroke-linecap="round" stroke-linejoin="round"/>
<path d="M68.3857 277.49C68.3857 277.49 70.3555 281.95 66.1742 286.506L68.3857 277.49Z" fill="white"/>
<path d="M68.3857 277.49C68.3857 277.49 70.3555 281.95 66.1742 286.506" stroke="#4AAADF" stroke-width="1.54895" stroke-linecap="round" stroke-linejoin="round"/>
</svg>
