<svg width="150" height="117" viewBox="0 0 150 117" fill="none" xmlns="http://www.w3.org/2000/svg">
<path d="M0.15627 36.3087C-0.0670761 37.0971 -0.0506877 37.9341 0.20335 38.7132C0.457388 39.4922 0.937576 40.178 1.58274 40.6832C1.25941 38.3438 4.28353 37.6971 3.6749 35.9853C3.58036 35.6541 3.38477 35.3605 3.11541 35.1457C2.84606 34.9309 2.51637 34.8056 2.17235 34.7871C1.71641 34.7864 1.27272 34.9347 0.908787 35.2093C0.544858 35.484 0.280617 35.87 0.15627 36.3087Z" fill="#00A1E4"/>
<path d="M57.9567 36.3658C56.2259 36.3658 54.3239 37.0124 53.392 36.3658C53.0278 36.0903 52.7638 35.7033 52.6402 35.2637C52.5165 34.8241 52.5401 34.3562 52.7073 33.9313C52.8545 33.6179 53.0984 33.3601 53.4031 33.1957C53.7079 33.0314 54.0573 32.9692 54.4 33.0183C56.2259 33.0373 57.3671 34.8632 57.9567 36.3658Z" fill="#00A1E4"/>
<path d="M89.3775 84.0301C89.0827 84.3279 88.724 84.5546 88.3285 84.693C87.933 84.8314 87.5112 84.8779 87.0951 84.8289C86.432 84.7729 85.8129 84.474 85.3566 83.9896C84.9003 83.5053 84.6389 82.8695 84.6226 82.2042C84.6234 81.8963 84.6882 81.5919 84.8128 81.3103C85.2312 80.3783 86.1822 79.9028 86.943 79.2752C87.4482 78.8747 87.8574 78.3662 88.1405 77.787C88.4235 77.2077 88.5732 76.5724 88.5786 75.9277C90.9181 78.8377 90.7279 82.6417 89.3775 84.0301Z" fill="#00A1E4"/>
<path d="M37.1306 74.0249C37.1999 74.3054 37.2104 74.5973 37.1613 74.8821C37.1122 75.1669 37.0046 75.4384 36.8453 75.6796C36.0845 76.9349 33.6881 76.8207 32.5659 76.6686C32.7751 75.3943 34.4679 72.1609 36.1036 72.8647C36.3531 72.9649 36.5759 73.122 36.7542 73.3234C36.9325 73.5248 37.0613 73.765 37.1306 74.0249Z" fill="#00A1E4"/>
<path d="M114.407 40.9496C113.837 38.8003 112.619 38.4199 111.744 37.1456C111.352 36.6231 111.159 35.9773 111.201 35.3251C111.243 34.6728 111.517 34.057 111.973 33.589C112.225 33.4036 112.511 33.2699 112.815 33.1954C113.119 33.1208 113.434 33.107 113.744 33.1548C114.053 33.2025 114.349 33.3107 114.617 33.4734C114.884 33.636 115.117 33.8498 115.301 34.1025C115.375 34.1764 115.439 34.2595 115.491 34.3497C117.184 37.2407 114.388 40.8545 114.407 40.9496Z" fill="#00A1E4"/>
<path d="M33.4976 67.6357C33.4976 75.7952 26.5174 80.3789 15.2387 80.3789C6.73696 80.3789 2.87598 78.4769 2.87598 74.5589L3.97911 41.9022C4.11225 38.3455 7.38363 36.5957 13.7172 36.5957C24.4062 36.5957 31.4625 42.1875 31.4625 51.431C31.5388 53.8022 30.8227 56.1312 29.4274 58.0498C30.7633 59.2546 31.8198 60.7367 32.5229 62.3925C33.226 64.0484 33.5586 65.8379 33.4976 67.6357ZM24.178 67.6357C24.178 64.7257 22.8085 63.6416 17.2738 63.6416C15.6723 63.6527 14.0724 63.748 12.4809 63.9269L12.2527 70.9071C13.2036 70.9071 14.1546 71.0593 15.1056 71.0593C21.1348 71.0593 24.178 69.8991 24.178 67.6357ZM13.7172 45.8963H13.0515V54.2649L17.7113 53.8275C21.287 53.5422 22.1429 53.1047 22.1429 51.431C22.1429 47.57 19.3089 45.8963 13.7172 45.8963Z" fill="#00A1E4"/>
<path d="M68.2467 60.0065C68.2467 73.6817 63.0163 80.9281 53.031 80.9281C42.5702 80.9281 36.7502 74.1001 36.7502 62.9736C36.7693 48.4426 43.5402 37.8867 53.4875 37.8867C62.4458 37.8867 68.2467 47.3965 68.2467 60.0065ZM59.0983 60.1587C59.0983 53.5399 56.7018 47.0542 53.4875 47.0542C49.0559 47.0542 46.0128 54.3387 46.0128 63.1258C46.0128 69.3071 48.181 71.6466 53.1261 71.6466C57.0442 71.6466 59.0983 67.7856 59.0983 60.1587Z" fill="#00A1E4"/>
<path d="M111.896 42.5466C111.896 44.8099 111.592 52.7411 111.592 54.9854V59.3599C111.592 59.7213 111.592 62.9166 111.592 69.0219C111.592 69.6115 111.82 72.8258 111.82 73.8909C111.82 78.4747 110.28 80.7951 107.16 80.7951C106.547 80.8053 105.938 80.6924 105.369 80.463C104.801 80.2336 104.284 79.8925 103.849 79.4598C103.415 79.027 103.072 78.5115 102.84 77.9437C102.608 77.3759 102.493 76.7674 102.5 76.1543C102.5 69.098 102.291 63.0688 102.367 58.0476C101.131 59.9495 99.2291 62.8405 96.6615 66.7015C96.2612 67.3796 95.6869 67.9383 94.9979 68.3196C94.309 68.7008 93.5305 68.8908 92.7434 68.8697C91.9394 68.923 91.1375 68.7386 90.4374 68.3395C89.7374 67.9405 89.1702 67.3444 88.8063 66.6254L83.1005 57.3819C83.1005 61.8325 82.9673 65.5984 82.9673 69.0219C82.9673 69.8207 83.1765 72.5786 83.1765 73.6817C83.1765 78.3986 81.655 80.738 78.5167 80.738C75.3785 80.738 73.6477 78.2654 73.6477 73.2443C73.6477 72.7307 73.6477 71.9319 73.6477 70.9809V68.9458C73.6477 63.7154 73.6477 57.7433 73.8759 51.0674C73.8759 50.5538 73.8759 49.9642 73.8759 49.3936C73.8759 46.4076 72.8489 37.5254 78.745 37.5254C79.5013 37.5492 80.2409 37.7532 80.9025 38.1204C81.5641 38.4876 82.1286 39.0074 82.5489 39.6366C83.2716 40.6636 86.6762 45.9701 92.8575 55.6511C95.1209 51.8472 98.5634 46.6929 103.337 39.7887C103.769 39.1769 104.338 38.6743 104.998 38.321C105.659 37.9677 106.393 37.7734 107.141 37.7536C107.774 37.7349 108.404 37.8464 108.992 38.0812C109.58 38.3159 110.113 38.669 110.559 39.1183C111.005 39.5677 111.353 40.1039 111.583 40.6936C111.813 41.2833 111.92 41.914 111.896 42.5466Z" fill="#00A1E4"/>
<path d="M149.993 67.6357C149.993 75.7952 143.012 80.3789 131.734 80.3789C123.232 80.3789 119.371 78.4769 119.371 74.5589L120.474 41.9022C120.607 38.3455 123.879 36.5957 130.212 36.5957C140.901 36.5957 147.958 42.1875 147.958 51.431C148.043 53.8034 147.326 56.1352 145.923 58.0498C147.258 59.2546 148.315 60.7367 149.018 62.3925C149.721 64.0484 150.054 65.8379 149.993 67.6357ZM140.692 67.6357C140.692 64.7257 139.304 63.6416 133.769 63.6416C132.167 63.6527 130.568 63.748 128.976 63.9269L128.767 70.9071C129.699 70.9071 130.669 71.0593 131.601 71.0593C137.63 71.0593 140.73 69.8991 140.73 67.6357H140.692ZM130.212 45.8963H129.566V54.2649L134.206 53.8275C137.782 53.5422 138.657 53.1047 138.657 51.431C138.657 47.57 135.804 45.8963 130.212 45.8963Z" fill="#00A1E4"/>
<path d="M48.4469 18.0143C49.5691 19.9163 47.4959 23.4539 45.7271 24.5C42.741 26.2688 39.3365 25.0326 37.3014 21.609C35.0571 17.8051 35 12.3655 38.0432 10.5396C39.1292 10.1037 40.3229 10.0122 41.4627 10.2776C42.6024 10.5429 43.633 11.1523 44.4148 12.0231L44.7191 12.4035C44.9381 12.7969 44.997 13.2595 44.8836 13.6952C44.7703 14.1309 44.4934 14.5062 44.1104 14.7429C43.8573 14.8937 43.5682 14.9732 43.2736 14.9732C42.979 14.9732 42.6898 14.8937 42.4367 14.7429L40.9532 13.7349C40.4397 13.3735 40.0402 13.3165 39.7359 13.4876C38.7469 14.0773 38.823 17.5198 40.2304 19.8782C41.3146 21.6851 42.722 22.3508 44.0344 21.59C44.3852 21.3429 44.6754 21.0194 44.8829 20.6438C45.0905 20.2682 45.2101 19.8503 45.2326 19.4218C45.2361 19.0389 45.3211 18.6611 45.4817 18.3135C45.6424 17.9659 45.8752 17.6565 46.1646 17.4057C46.5503 17.1945 47.0026 17.1399 47.4275 17.2533C47.8525 17.3666 48.2175 17.6391 48.4469 18.0143Z" fill="#00A1E4"/>
<path d="M57.4248 4.2782C57.8812 5.64761 59.3267 10.3645 59.8212 11.7149L60.4869 13.731C60.4869 13.9592 60.9244 14.8721 61.0575 15.2715C61.6091 16.9453 61.3618 17.9533 60.2777 18.3147C60.0674 18.411 59.8385 18.4599 59.6073 18.458C59.376 18.4561 59.1479 18.4034 58.9393 18.3036C58.7306 18.2038 58.5464 18.0593 58.3997 17.8805C58.2531 17.7017 58.1475 17.4928 58.0905 17.2686L56.5879 12.7419L54.6859 13.4457C54.4026 13.5695 54.1101 13.6712 53.811 13.75C53.4848 13.8766 53.1473 13.9721 52.803 14.0353L54.2675 18.3908C54.4001 18.8151 54.3681 19.2738 54.1778 19.6756C53.9875 20.0774 53.6528 20.3928 53.2405 20.559C53.0269 20.6305 52.8014 20.6592 52.5767 20.6434C52.3521 20.6276 52.1328 20.5676 51.9314 20.4669C51.73 20.3662 51.5504 20.2267 51.403 20.0565C51.2555 19.8863 51.1431 19.6886 51.0722 19.4749L48.4856 11.6578C48.4856 11.3915 48.2763 11.1443 48.1812 10.84C47.8959 9.98409 47.5346 8.84291 47.1542 7.49252C47.0757 7.2769 47.0446 7.04691 47.063 6.8182C47.0814 6.58948 47.1488 6.36741 47.2607 6.16709C47.3726 5.96677 47.5263 5.7929 47.7114 5.65731C47.8965 5.52173 48.1087 5.4276 48.3334 5.38134C48.5482 5.32118 48.7729 5.30459 48.9942 5.33252C49.2156 5.36045 49.4291 5.43234 49.6222 5.54398C49.8154 5.65562 49.9843 5.80474 50.119 5.98258C50.2536 6.16043 50.3514 6.3634 50.4065 6.57958L51.1103 8.67173C51.4526 9.67977 51.6428 10.4215 51.795 10.8019L55.5989 9.5086C55.5038 9.2233 55.3897 8.97605 55.2946 8.67173C54.9903 7.81585 54.6479 6.76977 54.2485 5.30526C54.1168 4.87143 54.1605 4.40324 54.3704 4.00133C54.5802 3.59943 54.9394 3.29592 55.3707 3.15604C55.7917 3.04251 56.2403 3.09583 56.6229 3.30488C57.0056 3.51393 57.2928 3.86259 57.4248 4.2782Z" fill="#00A1E4"/>
<path d="M65.9834 5.04299L66.2687 7.61064L68.57 7.28731C68.7887 7.25508 69.0116 7.26649 69.2259 7.32087C69.4401 7.37526 69.6415 7.47154 69.8183 7.60417C69.9951 7.73679 70.144 7.90313 70.2562 8.09358C70.3684 8.28403 70.4417 8.49482 70.472 8.71378C70.6051 9.87397 70.0155 10.6157 68.2467 10.825L66.5159 11.0342L66.8202 13.735L71.3279 13.1644C71.7679 13.1095 72.2121 13.2275 72.5669 13.4935C72.9217 13.7596 73.1594 14.153 73.2299 14.5908C73.2901 15.0289 73.1766 15.4731 72.9136 15.8286C72.6506 16.184 72.2589 16.4224 71.8224 16.4928L65.3938 17.4438C65.1673 17.4701 64.9378 17.4509 64.7189 17.3874C64.4999 17.3238 64.2959 17.2171 64.1187 17.0736C63.9415 16.9301 63.7948 16.7527 63.6871 16.5517C63.5795 16.3507 63.5131 16.1302 63.4918 15.9032L62.3887 3.55946C62.3463 3.09802 62.4888 2.63863 62.7847 2.28206C63.0807 1.9255 63.506 1.70089 63.9673 1.65749L70.3579 1.14397C70.5877 1.10928 70.8222 1.12227 71.0467 1.18215C71.2713 1.24203 71.4811 1.3475 71.6631 1.492C71.8451 1.6365 71.9954 1.81694 72.1046 2.02206C72.2139 2.22718 72.2797 2.4526 72.298 2.68427C72.3164 2.91595 72.2868 3.14891 72.2112 3.36866C72.1355 3.5884 72.0155 3.79022 71.8584 3.96154C71.7014 4.13286 71.5108 4.27001 71.2984 4.36444C71.0861 4.45887 70.8566 4.50857 70.6242 4.51044L65.9834 5.04299Z" fill="#00A1E4"/>
<path d="M80.0386 4.64159L79.8674 7.22826L82.1878 7.34238C82.6368 7.37177 83.0567 7.57487 83.3585 7.90862C83.6603 8.24237 83.8203 8.68053 83.8045 9.13022C83.6904 10.3094 82.9676 10.861 81.1798 10.7659L79.449 10.6138L79.2018 13.3336L83.7474 13.5808C84.1964 13.6086 84.6159 13.8135 84.9137 14.1506C85.2116 14.4877 85.3633 14.9292 85.3356 15.3782C85.3078 15.8271 85.1029 16.2467 84.7658 16.5445C84.4287 16.8423 83.9872 16.9941 83.5382 16.9663L77.0525 16.624C76.8255 16.6027 76.6051 16.5363 76.4041 16.4286C76.2031 16.321 76.0256 16.1743 75.8821 15.9971C75.7386 15.8199 75.6319 15.6159 75.5684 15.3969C75.5048 15.1779 75.4856 14.9485 75.5119 14.722L76.9004 2.39728C76.9263 2.17362 76.9961 1.95728 77.1058 1.76065C77.2155 1.56402 77.3629 1.39096 77.5396 1.25139C77.7163 1.11181 77.9188 1.00846 78.1354 0.947263C78.3521 0.886061 78.5787 0.868208 78.8023 0.894726L85.1739 1.67453C85.395 1.70201 85.6084 1.77275 85.8021 1.88272C85.9958 1.9927 86.166 2.13975 86.3029 2.31548C86.4397 2.49121 86.5407 2.69218 86.5999 2.90691C86.6591 3.12165 86.6754 3.34594 86.6479 3.56698C86.6205 3.78803 86.5497 4.0015 86.4397 4.1952C86.3298 4.38891 86.1827 4.55906 86.007 4.69594C85.8313 4.83281 85.6303 4.93373 85.4155 4.99294C85.2008 5.05215 84.9765 5.06848 84.7555 5.041L80.0386 4.64159Z" fill="#00A1E4"/>
<path d="M94.3034 9.90939C95.5079 10.5673 96.6259 11.3723 97.6318 12.3059C98.158 12.8732 98.5165 13.5752 98.6676 14.3341C98.8187 15.0929 98.7564 15.8787 98.4877 16.6043C97.7269 19.1339 94.893 20.1229 91.8689 19.191C89.4724 18.4682 86.9238 16.1098 87.4183 14.4741C87.5463 14.0508 87.8349 13.6943 88.2223 13.4811C88.6098 13.2678 89.0653 13.2146 89.4914 13.3329C90.1001 13.5231 91.0891 15.4251 92.8389 15.9386C93.9801 16.3 95.0832 16.1859 95.2544 15.5963C95.6728 14.2078 94.893 14.5882 90.8799 11.6592C90.224 11.0905 89.7447 10.3458 89.4987 9.5133C89.2526 8.68079 89.2501 7.79524 89.4914 6.96135C89.9908 5.64865 90.9885 4.58635 92.2673 4.00572C93.5461 3.42508 95.0025 3.37312 96.3195 3.86115C97.3518 4.19628 98.2627 4.8275 98.9391 5.67631C99.6154 6.52511 100.027 7.55403 100.123 8.63508C100.154 8.84315 100.154 9.05466 100.123 9.26273C100.056 9.4753 99.948 9.67253 99.8046 9.84312C99.6611 10.0137 99.4854 10.1543 99.2875 10.2568C99.0895 10.3593 98.8733 10.4217 98.6512 10.4404C98.4291 10.4591 98.2055 10.4338 97.9932 10.3659C96.776 9.98547 96.814 7.55096 95.3875 7.11351C93.9611 6.67605 93.0861 7.11351 92.8199 8.02645C92.5346 8.57802 93.1812 9.18665 94.3034 9.90939Z" fill="#00A1E4"/>
<path d="M107.275 12.3832L106.039 14.6656L108.112 15.7117C108.512 15.9118 108.817 16.2622 108.959 16.6864C109.102 17.1105 109.071 17.5738 108.873 17.975C108.302 19.0211 107.427 19.2303 105.811 18.4315L104.289 17.6136L102.977 19.9911L107.047 22.0452C107.45 22.2445 107.758 22.5959 107.903 23.0221C108.047 23.4483 108.016 23.9145 107.817 24.3181C107.618 24.7216 107.266 25.0295 106.84 25.1739C106.414 25.3184 105.948 25.2876 105.544 25.0884L99.8384 22.1784C99.6403 22.0692 99.4657 21.922 99.3249 21.745C99.184 21.5681 99.0797 21.365 99.0178 21.1474C98.9559 20.9299 98.9377 20.7023 98.9643 20.4777C98.9909 20.2531 99.0617 20.036 99.1727 19.8389L105.373 9.09285C105.604 8.69789 105.981 8.4102 106.423 8.2926C106.865 8.17499 107.335 8.23705 107.732 8.4652L113.247 11.7366C113.44 11.8502 113.608 12.0006 113.742 12.1792C113.876 12.3578 113.974 12.5611 114.029 12.7774C114.085 12.9938 114.097 13.219 114.066 13.4402C114.035 13.6613 113.96 13.8742 113.846 14.0665C113.733 14.2588 113.582 14.4269 113.404 14.561C113.225 14.6952 113.022 14.7929 112.805 14.8486C112.589 14.9042 112.364 14.9167 112.143 14.8853C111.922 14.8539 111.709 14.7792 111.516 14.6656L107.275 12.3832Z" fill="#00A1E4"/>
<path d="M44.2057 102.346C42.7412 104.019 38.747 103.144 37.1874 101.794C34.5817 99.5117 34.6959 95.8789 37.3206 92.8928C40.2496 89.5644 45.3849 87.8146 48.0667 90.154C48.8189 91.0476 49.2788 92.1504 49.3842 93.3137C49.4897 94.4769 49.2356 95.6445 48.6563 96.6587C48.5732 96.8001 48.4777 96.9338 48.371 97.0582C48.0681 97.3926 47.6477 97.5972 47.1976 97.6291C46.7475 97.661 46.3025 97.5177 45.9555 97.2293C45.7399 97.0295 45.5794 96.7776 45.4895 96.4978C45.3996 96.2179 45.3832 95.9197 45.4419 95.6317L45.9555 93.9009C46.1076 93.3113 45.9555 92.8929 45.7843 92.6646C44.9284 91.9038 41.6951 93.064 39.8692 95.1181C38.4808 96.7158 38.3096 98.2564 39.4317 99.2454C39.7707 99.4976 40.1625 99.6697 40.5776 99.7488C40.9926 99.8279 41.4202 99.8118 41.8282 99.7019C42.1909 99.5888 42.5734 99.5541 42.9505 99.6C43.3275 99.6459 43.6906 99.7714 44.0155 99.9682C44.3545 100.259 44.5648 100.672 44.6004 101.118C44.636 101.563 44.4941 102.004 44.2057 102.346Z" fill="#00A1E4"/>
<path d="M61.6085 100.042C60.9999 101.336 58.8317 105.748 58.2421 107.08L57.3291 108.982C57.3291 109.21 56.8726 110.104 56.6824 110.484C55.9407 112.082 55.0658 112.652 54.0197 112.158C53.8111 112.074 53.623 111.946 53.468 111.783C53.3129 111.619 53.1945 111.425 53.1206 111.213C53.0468 111 53.0192 110.774 53.0398 110.55C53.0604 110.326 53.1286 110.109 53.2399 109.914L55.1419 105.577L53.2399 104.816C52.9166 104.702 52.6503 104.569 52.384 104.455L51.4711 103.96L49.5691 108.126C49.3681 108.526 49.0214 108.833 48.6004 108.986C48.1793 109.138 47.716 109.123 47.3058 108.944C46.8957 108.753 46.5775 108.409 46.4207 107.984C46.2639 107.56 46.2812 107.092 46.4689 106.68L49.9875 99.2246C50.1017 98.9773 50.1968 98.7111 50.3299 98.4258C50.7103 97.6079 51.2428 96.5238 51.8895 95.2875C51.9809 95.0779 52.1161 94.8903 52.2862 94.7374C52.4563 94.5846 52.6573 94.47 52.8754 94.4015C53.0936 94.333 53.3239 94.3121 53.5509 94.3403C53.7778 94.3685 53.9961 94.445 54.1909 94.5648C54.3915 94.6638 54.5704 94.8016 54.7174 94.9703C54.8644 95.1389 54.9765 95.335 55.0473 95.5473C55.118 95.7595 55.146 95.9837 55.1296 96.2068C55.1132 96.4299 55.0527 96.6475 54.9517 96.8471L54.0197 98.8632C53.5632 99.8332 53.2019 100.48 53.0307 100.879L56.6444 102.496C56.7585 102.23 56.8536 101.982 56.9868 101.697C57.3672 100.879 57.8997 99.7952 58.5654 98.5399C58.7625 98.1316 59.1135 97.8183 59.5414 97.6685C59.9693 97.5188 60.4391 97.5448 60.8477 97.7411C61.0508 97.84 61.232 97.9786 61.3806 98.1487C61.5293 98.3188 61.6424 98.5169 61.7133 98.7314C61.7842 98.9458 61.8114 99.1723 61.7934 99.3975C61.7755 99.6226 61.7126 99.8419 61.6085 100.042Z" fill="#00A1E4"/>
<path d="M66.5538 103.18L66.1543 105.728L68.4747 106.013C68.6977 106.039 68.9133 106.109 69.109 106.219C69.3047 106.329 69.4766 106.477 69.6147 106.654C69.7527 106.831 69.8542 107.034 69.9132 107.25C69.9722 107.467 69.9875 107.693 69.9583 107.915C69.7871 109.076 69.0263 109.57 67.2385 109.38L65.5267 109.114L65.1083 111.814L69.6159 112.347C70.0295 112.436 70.3956 112.674 70.6436 113.017C70.8916 113.36 71.004 113.782 70.9592 114.202C70.9143 114.623 70.7152 115.012 70.4005 115.295C70.0857 115.577 69.6775 115.733 69.2545 115.733L62.8069 114.953C62.3669 114.887 61.9705 114.65 61.7036 114.294C61.4366 113.938 61.3205 113.492 61.3804 113.051L63.5677 100.859C63.6512 100.41 63.9068 100.012 64.2799 99.7492C64.653 99.4863 65.114 99.3795 65.5647 99.4517L71.8602 100.65C72.0989 100.67 72.3307 100.74 72.5406 100.855C72.7506 100.97 72.9341 101.128 73.0792 101.318C73.2243 101.509 73.3278 101.728 73.3831 101.961C73.4383 102.194 73.4441 102.436 73.3999 102.671C73.3558 102.907 73.2628 103.13 73.1269 103.327C72.9909 103.524 72.8152 103.691 72.6109 103.816C72.4066 103.941 72.1784 104.022 71.941 104.053C71.7036 104.084 71.4622 104.065 71.2326 103.997L66.5538 103.18Z" fill="#00A1E4"/>
<path d="M78.84 103.772L79.1253 106.358L81.4267 106.016C81.8667 105.961 82.3109 106.079 82.6657 106.345C83.0205 106.611 83.2581 107.004 83.3286 107.442C83.4618 108.602 82.8531 109.344 81.0843 109.573L79.3726 109.763L79.6769 112.463L84.1655 111.798C84.6056 111.743 85.0498 111.861 85.4045 112.127C85.7593 112.393 85.997 112.786 86.0675 113.224C86.1278 113.662 86.0143 114.107 85.7512 114.462C85.4882 114.817 85.0965 115.056 84.66 115.126L78.2314 116.077C78.0059 116.106 77.7769 116.09 77.5581 116.028C77.3392 115.967 77.1349 115.862 76.9574 115.72C76.7799 115.578 76.6328 115.402 76.5249 115.202C76.417 115.002 76.3505 114.782 76.3294 114.556L75.2073 102.193C75.1836 101.965 75.2053 101.735 75.2711 101.516C75.3369 101.297 75.4454 101.094 75.5904 100.917C75.7355 100.74 75.9141 100.593 76.116 100.486C76.3179 100.379 76.5392 100.312 76.7669 100.291L83.1765 99.7964C83.4044 99.7701 83.6353 99.79 83.8555 99.8547C84.0756 99.9194 84.2805 100.028 84.4579 100.173C84.6353 100.319 84.7817 100.498 84.8883 100.702C84.9949 100.905 85.0596 101.127 85.0784 101.356C85.102 101.585 85.0796 101.816 85.0127 102.037C84.9457 102.257 84.8355 102.461 84.6885 102.639C84.5415 102.816 84.3607 102.962 84.1566 103.068C83.9525 103.174 83.7292 103.239 83.4998 103.258L78.84 103.772Z" fill="#00A1E4"/>
<path d="M92.8199 103.124C94.1922 102.865 95.5919 102.782 96.9852 102.877C97.7516 102.987 98.4728 103.307 99.0699 103.8C99.667 104.293 100.117 104.941 100.371 105.673C101.36 108.126 99.781 110.675 96.852 111.873C94.5316 112.805 91.1461 112.577 90.4234 110.998C90.2504 110.594 90.2431 110.138 90.4033 109.729C90.5634 109.32 90.878 108.99 91.2793 108.811C91.8689 108.564 93.8279 109.419 95.5207 108.811C96.6428 108.354 97.4226 107.575 97.1754 106.909C96.6428 105.577 96.2624 106.357 91.2983 106.624C90.4324 106.589 89.5941 106.31 88.8804 105.819C88.1667 105.327 87.607 104.643 87.2661 103.847C86.8202 102.512 86.9223 101.056 87.55 99.7967C88.1777 98.5377 89.2796 97.5795 90.6136 97.1327C91.6236 96.755 92.7222 96.6815 93.7735 96.9216C94.8248 97.1616 95.7827 97.7045 96.5287 98.4831C96.67 98.6345 96.7856 98.808 96.871 98.9967C96.9543 99.2039 96.9957 99.4255 96.9929 99.6488C96.9901 99.8721 96.9432 100.093 96.8548 100.298C96.7664 100.503 96.6383 100.688 96.4779 100.844C96.3175 100.999 96.1279 101.121 95.9201 101.203C94.7408 101.678 93.2383 99.7575 91.8499 100.309C90.4614 100.861 90.081 101.774 90.4424 102.648C90.6136 103.181 91.4124 103.314 92.8199 103.124Z" fill="#00A1E4"/>
<path d="M101.721 95.2519L103.3 97.306L105.202 95.8225C105.545 95.5362 105.988 95.3976 106.434 95.4368C106.879 95.476 107.291 95.6898 107.579 96.0317C108.302 96.9636 108.15 97.9336 106.78 99.0177L105.411 100.083L107.085 102.232L110.565 99.3221C110.736 99.1774 110.934 99.068 111.147 99.0002C111.36 98.9324 111.584 98.9075 111.807 98.9269C112.03 98.9464 112.247 99.0098 112.445 99.1135C112.643 99.2173 112.819 99.3593 112.962 99.5313C113.109 99.698 113.222 99.8928 113.293 100.104C113.363 100.315 113.39 100.538 113.373 100.76C113.355 100.982 113.293 101.199 113.189 101.396C113.086 101.593 112.944 101.768 112.772 101.909L107.788 106.074C107.425 106.35 106.967 106.47 106.514 106.41C106.062 106.349 105.652 106.112 105.373 105.751L97.9934 95.7654C97.7299 95.3958 97.6221 94.9376 97.6933 94.4893C97.7644 94.0411 98.0088 93.6387 98.3738 93.3689L103.566 89.565C103.938 89.3035 104.398 89.1988 104.846 89.2736C105.295 89.3483 105.696 89.5965 105.963 89.9644C106.222 90.3302 106.326 90.7841 106.251 91.2263C106.176 91.6684 105.929 92.0628 105.563 92.3228L101.721 95.2519Z" fill="#00A1E4"/>
</svg>
