<svg width="800" height="812" viewBox="0 0 800 812" fill="none" xmlns="http://www.w3.org/2000/svg">
<mask id="mask0_156_811" style="mask-type:luminance" maskUnits="userSpaceOnUse" x="0" y="0" width="800" height="812">
<path d="M800 0.664062H0V811.416H800V0.664062Z" fill="white"/>
</mask>
<g mask="url(#mask0_156_811)">
<mask id="mask1_156_811" style="mask-type:luminance" maskUnits="userSpaceOnUse" x="0" y="0" width="800" height="812">
<path d="M800 0.664062H0V811.416H800V0.664062Z" fill="white"/>
</mask>
<g mask="url(#mask1_156_811)">
<path d="M259.172 31.3735C127.15 89.0152 39.9116 226.358 31.3762 365.03C20.2913 540.172 136.461 714.982 310.273 765.529C463.467 809.869 622.647 756.107 711.105 624.75C799.562 493.394 788.699 311.268 666.765 206.072C555.25 109.079 380.884 95.2228 264.16 196.096C155.528 290.539 132.582 474.882 246.867 572.208C378.002 683.057 643.819 580.854 612.67 396.622C608.175 369.534 597.144 343.95 580.533 322.085C563.922 300.22 542.231 282.734 517.34 271.141C491.709 259.863 463.455 255.902 435.711 259.698C407.967 263.494 381.815 274.897 360.155 292.646C300.962 344.301 298.302 456.703 389.641 472.997C408.177 475.953 427.171 473.524 444.366 465.997C461.56 458.471 476.231 446.165 486.635 430.542" stroke="#A9D8F4" stroke-opacity="0.25" stroke-width="61.2997" stroke-miterlimit="10" stroke-linecap="round"/>
</g>
</g>
</svg>
