<svg width="140" height="142" viewBox="0 0 140 142" fill="none" xmlns="http://www.w3.org/2000/svg">
<mask id="mask0_154_776" style="mask-type:luminance" maskUnits="userSpaceOnUse" x="0" y="0" width="140" height="142">
<path d="M0 0H140V141.882H0V0Z" fill="white"/>
</mask>
<g mask="url(#mask0_154_776)">
<mask id="mask1_154_776" style="mask-type:luminance" maskUnits="userSpaceOnUse" x="0" y="0" width="140" height="142">
<path d="M0 0H140V141.882H0V0Z" fill="white"/>
</mask>
<g mask="url(#mask1_154_776)">
<path d="M94.646 5.37402C117.75 15.4613 133.016 39.4962 134.51 63.7639C136.45 94.4138 116.12 125.005 85.7032 133.851C58.8943 141.611 31.0378 132.202 15.5577 109.215C0.0775929 86.2276 1.97866 54.3556 23.3172 35.9463C42.8322 18.9725 73.3463 16.5476 93.773 34.2004C112.784 50.728 116.799 82.988 96.7992 100.02C73.8506 119.419 27.3327 101.533 32.7837 69.2925C33.5704 64.5521 35.5008 60.0748 38.4078 56.2485C41.3147 52.4222 45.1105 49.3621 49.4665 47.3333C53.952 45.3596 58.8963 44.6665 63.7516 45.3308C68.6068 45.995 73.1833 47.9907 76.9738 51.0966C87.3327 60.1364 87.7983 79.8066 71.8138 82.6582C68.5701 83.1755 65.2461 82.7503 62.2371 81.4332C59.228 80.1161 56.6605 77.9625 54.84 75.2285" stroke="#A9D8F4" stroke-width="10.7274" stroke-miterlimit="10" stroke-linecap="round"/>
</g>
</g>
</svg>
